# xmcd
#
# Track frame offsets: 
#        150
#        19016
#        31954
#        44395
#        61292
#        83168
#        99947
#        112840
#        129463
#        147976
#
# Disc length: 2197 seconds
#
# Revision: 0
# Processed by: cddbd v1.5.2PL0 Copyright (c) Steve Scherf et al.
# Submitted via: ExactAudioCopyFreeDBPlugin 1.0
#
DISCID=7808930a
DTITLE=Delfinai - Krantas
DYEAR=2003
DGENRE=Pop
TTITLE0=Šiluma
TTITLE1=Saulė
TTITLE2=Tavo Kambary
TTITLE3=Aš Baigiu Išprotėti
TTITLE4=Liūdnas Juokas
TTITLE5=Debesys
TTITLE6=Širdis
TTITLE7=Krantas
TTITLE8=Debesys (Club Mix)
TTITLE9=Apie Ją
EXTD=
EXTT0=
EXTT1=
EXTT2=
EXTT3=
EXTT4=
EXTT5=
EXTT6=
EXTT7=
EXTT8=
EXTT9=
PLAYORDER=
